<?xml version="1.0" standalone="no"?>
<!DOCTYPE svg PUBLIC "-//W3C//DTD SVG 20010904//EN"
 "http://www.w3.org/TR/2001/REC-SVG-20010904/DTD/svg10.dtd">
<svg version="1.0" xmlns="http://www.w3.org/2000/svg"
 width="800.000000pt" height="800.000000pt" viewBox="0 0 800.000000 800.000000"
 preserveAspectRatio="xMidYMid meet">
<metadata>
Created by potrace 1.14, written by Peter Selinger 2001-2017
</metadata>
<g transform="translate(0.000000,800.000000) scale(0.100000,-0.100000)"
fill="#000000" stroke="none">
<path d="M0 6407 l0 -1592 62 -35 c35 -19 66 -36 70 -38 5 -2 8 59 8 135 0 95
4 143 12 151 17 17 329 17 346 0 17 -17 17 -2129 0 -2146 -17 -17 -329 -17
-346 0 -16 16 -18 1408 -2 1424 7 7 -15 24 -64 52 -40 23 -76 42 -80 42 -3 0
-6 -990 -6 -2200 l0 -2200 551 0 c536 0 550 0 544 19 -29 94 -34 361 -8 497 9
49 17 114 17 146 1 31 4 51 7 46 6 -10 25 48 21 65 -1 4 1 7 6 7 4 0 7 22 7
49 0 27 2 49 5 48 3 -1 23 17 44 40 21 24 54 52 73 64 25 15 33 27 30 40 -4
14 0 19 16 19 22 0 -60 40 -206 100 -133 55 -203 134 -247 280 -21 69 -11 81
15 18 l17 -43 19 25 c10 14 29 36 41 50 23 25 37 87 17 75 -6 -4 -9 -1 -8 6 1
8 -1 21 -5 31 -8 17 13 65 46 107 14 19 16 26 6 33 -10 6 -10 8 1 8 7 0 11 6
8 15 -4 8 -2 17 2 20 5 2 11 16 13 30 4 19 -1 31 -18 44 -30 23 -30 37 -3 44
16 4 20 11 16 28 -4 14 2 29 16 43 21 21 47 79 47 105 0 7 6 27 13 44 30 71
38 108 31 152 -4 33 -3 45 6 45 9 0 9 4 -1 17 -13 15 -12 16 9 11 18 -5 23 -1
28 20 3 15 9 37 14 48 15 37 -1 80 -26 70 -8 -3 -14 1 -14 9 0 7 -9 17 -20 20
-25 8 -25 19 -2 42 32 32 82 100 76 105 -3 3 26 29 63 59 86 66 94 74 63 60
l-25 -12 25 22 c38 33 242 128 301 139 28 6 78 10 110 10 47 0 63 5 87 25 17
14 36 24 43 23 7 -2 20 17 30 42 9 25 29 76 43 113 31 80 85 153 166 222 l58
50 -1 275 -2 274 -70 41 c-38 23 -71 49 -73 57 -3 18 18 36 96 79 l52 29 0
203 0 204 30 -5 30 -4 -2 -217 -3 -216 -54 -35 c-46 -30 -51 -36 -36 -45 9 -5
35 -22 56 -38 l39 -27 0 -261 c0 -258 0 -261 -22 -281 l-23 -19 45 6 c25 3 57
14 72 25 15 11 33 17 40 15 16 -7 65 -80 103 -155 l27 -54 24 29 c30 38 84
171 84 208 0 15 5 27 11 27 6 0 8 -9 4 -20 -5 -14 -2 -20 9 -20 9 0 32 -9 52
-19 56 -30 108 -144 140 -306 38 -193 42 -270 15 -329 l-21 -48 23 14 c29 19
104 162 113 216 3 23 10 45 15 47 12 8 58 -76 86 -158 13 -39 28 -108 32 -152
5 -44 9 -69 11 -55 9 99 -21 233 -79 355 -59 124 -74 158 -64 153 5 -1 51 -48
104 -103 80 -85 105 -120 158 -220 65 -124 94 -165 119 -165 12 0 11 5 -3 28
-10 15 54 -45 141 -134 171 -173 303 -278 481 -384 60 -35 133 -80 163 -100
126 -84 324 -160 435 -167 63 -4 82 0 190 37 66 23 134 48 150 55 17 7 37 15
45 17 8 2 21 10 28 18 12 13 13 11 8 -10 -3 -14 -6 -29 -6 -33 0 -5 -6 -5 -12
-1 -10 6 -10 5 0 -8 12 -15 12 -35 -3 -228 -6 -81 11 -175 32 -175 7 0 34 -31
60 -70 136 -197 224 -296 317 -356 74 -49 90 -50 45 -3 l-34 36 33 -17 c19 -9
40 -14 48 -11 9 3 15 -5 18 -27 3 -18 10 -59 16 -91 5 -33 10 -100 10 -149 0
-154 -79 -522 -149 -698 l-39 -96 15 -66 15 -67 139 0 c76 0 139 2 139 5 0 3
-34 46 -75 97 -41 51 -75 96 -75 100 0 11 34 17 103 20 l58 3 -91 100 c-50 55
-96 108 -101 118 -8 15 0 27 48 72 32 30 61 55 65 55 16 0 218 -358 218 -387
0 -6 -27 -14 -60 -18 -33 -4 -60 -12 -60 -18 0 -6 18 -41 40 -79 l41 -68 253
0 c241 0 254 1 271 20 l18 20 22 -20 c21 -20 30 -20 401 -16 208 2 390 5 403
6 l24 2 -29 24 c-73 60 -246 133 -449 189 -86 24 -155 55 -155 71 0 7 16 49
35 93 19 43 35 86 35 95 0 22 19 20 55 -5 17 -11 70 -41 120 -66 230 -117 346
-193 497 -327 l97 -86 350 0 351 0 0 2695 0 2695 -177 2 -178 3 0 1080 0 1080
178 3 177 2 0 220 0 220 -4000 0 -4000 0 0 -1593z m5140 1004 l259 -150 3 147
3 147 180 0 180 0 3 -431 c2 -386 1 -432 -14 -438 -8 -3 -22 0 -30 8 -12 12
-14 81 -14 410 l0 396 -125 0 -125 0 -2 -162 c-3 -155 -4 -163 -23 -166 -12
-2 -129 60 -280 147 l-260 150 -3 -328 -2 -327 -30 4 -30 4 0 362 c0 200 3
366 7 369 17 18 62 -3 303 -142z m1190 -224 l5 -368 40 -22 40 -23 0 -194 0
-195 -24 -3 c-13 -2 -28 1 -34 7 -6 6 -15 11 -19 11 -4 0 -8 -106 -8 -235 l0
-236 -30 16 -30 16 0 260 c0 286 0 285 61 262 l29 -11 0 127 0 127 -45 22 -45
22 0 365 0 365 -125 0 -125 0 -2 -272 -3 -273 -38 0 -37 0 0 -128 c0 -123 1
-128 23 -137 12 -5 47 -25 77 -43 47 -28 55 -38 55 -63 0 -25 -4 -29 -32 -32
l-33 -3 0 -180 0 -180 -31 35 -30 35 3 174 3 174 -45 29 -45 29 0 190 0 190
23 3 c13 2 30 -2 38 -8 12 -11 14 22 14 247 0 143 3 263 7 267 4 3 86 5 182 4
l176 -3 5 -368z m588 1 l2 -367 94 -56 c52 -30 97 -55 100 -55 3 0 7 190 8
423 l3 422 180 0 180 0 3 -463 2 -462 -50 -31 c-27 -17 -50 -32 -50 -33 0 -2
23 -17 50 -34 l50 -31 -2 -553 -3 -553 -180 0 -180 0 -2 444 -2 444 -93 53
c-51 29 -96 54 -100 54 -5 0 -8 -218 -8 -484 0 -531 2 -517 -58 -515 -15 0
-21 3 -14 6 30 12 6 18 -65 15 -79 -3 -122 9 -131 36 -3 9 4 11 25 6 l28 -7
-35 32 c-19 18 -42 36 -50 41 -8 5 -12 11 -9 14 3 3 21 -6 40 -20 37 -28 130
-77 167 -88 16 -6 22 -3 22 8 0 9 4 16 10 16 6 0 11 182 12 513 l3 512 27 3
c19 2 76 -25 200 -96 161 -93 173 -102 173 -128 0 -27 -3 -29 -42 -32 l-43 -3
0 -385 0 -384 125 0 125 0 0 503 0 503 -76 44 c-66 38 -75 46 -72 69 2 20 18
34 76 66 l72 40 0 412 0 413 -125 0 -125 0 -2 -437 -3 -438 -26 -3 c-18 -2
-67 21 -157 73 l-132 77 0 364 0 364 -125 0 -125 0 0 -942 0 -942 -30 29 -30
29 0 936 c0 515 3 940 7 944 4 3 86 5 182 4 l176 -3 3 -367z m-6314 173 l276
-159 0 164 0 164 155 0 155 0 0 -1055 0 -1055 -155 0 -155 0 0 694 0 695 45 3
45 3 -167 95 c-91 52 -170 97 -175 98 -4 2 -8 -354 -8 -792 l0 -796 -155 0
-155 0 0 1056 c0 616 4 1053 9 1050 5 -3 133 -77 285 -165z m1146 -199 l0
-368 45 -22 45 -22 0 -169 0 -170 -45 26 -45 25 0 -521 0 -521 -157 0 -156 0
6 122 c4 66 7 327 7 579 l0 458 37 3 37 3 -82 48 -82 49 0 169 0 169 33 -20
c17 -11 35 -20 40 -20 4 0 7 124 7 275 l0 275 155 0 155 0 0 -368z m590 1 l0
-368 122 -70 c66 -38 125 -71 130 -73 4 -2 8 195 8 437 l0 441 155 0 155 0 0
-440 0 -439 -75 -42 -76 -41 76 -45 75 -44 -5 -90 c-3 -49 -10 -97 -16 -107
-7 -9 -38 -39 -69 -67 -32 -27 -56 -52 -54 -54 2 -2 24 15 50 38 26 22 51 41
55 41 22 0 2 -28 -88 -123 -53 -56 -116 -128 -139 -159 l-42 -57 -1 174 -2
174 47 3 46 3 -171 98 c-94 53 -173 97 -176 97 -3 0 -5 -224 -5 -497 -1 -398
-3 -502 -14 -515 -11 -16 -32 -18 -155 -18 l-141 0 0 1055 0 1055 155 0 155 0
0 -367z m1660 49 l0 -317 -32 -17 c-18 -9 -44 -19 -58 -23 l-25 -6 25 15 c14
9 19 15 12 16 -38 1 -156 -88 -204 -154 l-28 -39 0 266 0 267 -130 0 -130 0
-2 -292 -3 -292 -86 -17 c-48 -9 -112 -24 -142 -33 -30 -9 -60 -16 -66 -16 -8
0 -11 139 -11 480 l0 480 440 0 440 0 0 -318z m1369 -269 c95 -55 174 -106
177 -116 8 -27 -14 -47 -52 -47 -31 0 -34 -3 -34 -30 0 -27 -3 -30 -30 -30
-29 0 -30 1 -30 48 0 26 5 53 12 60 8 8 9 12 1 12 -6 0 -54 25 -107 55 -52 30
-97 55 -100 55 -4 0 -6 -46 -6 -101 0 -100 0 -101 -22 -95 -13 3 -26 6 -30 6
-10 0 -11 264 -1 273 18 18 64 -1 222 -90z m-1066 -60 c-7 -2 -19 -2 -25 0 -7
3 -2 5 12 5 14 0 19 -2 13 -5z m80 0 c-13 -2 -33 -2 -45 0 -13 2 -3 4 22 4 25
0 35 -2 23 -4z m-1523 -738 c-7 -9 -15 -13 -17 -11 -7 7 7 26 19 26 6 0 6 -6
-2 -15z m-21 -61 c-60 -63 -57 -77 5 -19 15 14 31 25 35 23 3 -2 -27 -37 -68
-78 -41 -41 -69 -65 -62 -52 20 37 7 25 -57 -50 -143 -172 -159 -179 -55 -24
30 44 64 96 76 115 42 65 109 132 127 126 9 -3 24 3 35 15 10 11 21 18 24 15
2 -3 -24 -35 -60 -71z m701 -276 c-26 -51 -65 -136 -85 -188 -40 -101 -52
-124 -41 -75 15 64 89 233 128 293 22 34 42 62 43 62 2 0 -18 -42 -45 -92z
m-970 -268 c-6 -11 -13 -20 -16 -20 -2 0 0 9 6 20 6 11 13 20 16 20 2 0 0 -9
-6 -20z m837 -52 c-3 -8 -6 -5 -6 6 -1 11 2 17 5 13 3 -3 4 -12 1 -19z m-872
-5 c-4 -10 -9 -30 -11 -46 -4 -28 -64 -116 -103 -151 -22 -20 -30 -9 -9 12 9
9 9 12 0 12 -15 0 22 62 66 108 19 21 38 47 43 60 5 12 11 22 15 22 3 0 3 -8
-1 -17z m101 -175 c-3 -13 -15 -62 -26 -109 -10 -47 -22 -94 -25 -105 -6 -18
-6 -18 10 1 17 19 17 19 11 -10 -4 -16 -9 -39 -12 -50 -5 -20 -5 -20 7 0 7 11
21 28 31 39 17 19 17 19 14 0 -2 -11 -14 -37 -27 -59 -28 -51 -11 -33 81 83
40 50 75 90 77 88 2 -2 -1 -16 -8 -32 -6 -16 -13 -69 -15 -119 -3 -49 -9 -117
-15 -150 -12 -74 -24 -272 -15 -264 3 3 10 39 16 80 11 81 40 202 47 195 3 -3
-2 -29 -11 -59 -9 -30 -16 -66 -16 -78 0 -36 32 -179 41 -179 11 0 16 69 6 79
-5 5 -6 15 -2 21 11 17 34 -27 35 -64 0 -37 14 -25 16 15 1 17 -2 26 -8 22 -6
-3 -8 0 -6 8 3 8 14 13 24 11 18 -2 18 -2 2 8 -19 12 -25 50 -7 50 6 0 8 -9 3
-22 -6 -21 -5 -22 11 -8 11 9 16 10 11 3 -4 -8 -2 -13 4 -13 6 0 11 -10 10
-22 -1 -13 -1 -32 -1 -43 2 -19 3 -19 18 3 8 12 22 22 30 22 11 0 13 -4 5 -12
-5 -7 -6 -22 -2 -33 4 -11 4 -32 -1 -48 -5 -16 -4 -25 2 -22 5 4 9 0 10 -7 0
-7 2 -32 5 -55 3 -24 1 -43 -3 -43 -5 0 -9 -12 -10 -27 -1 -55 -6 -123 -9
-123 -1 0 -15 5 -31 10 -26 10 -27 9 -8 -5 11 -9 28 -22 37 -30 16 -13 19 -12
27 4 31 57 61 163 81 281 26 162 51 250 90 325 29 55 122 187 127 181 2 -2 -3
-22 -12 -45 -18 -52 -77 -359 -72 -374 2 -7 12 22 21 63 17 71 81 246 96 263
4 4 10 -38 13 -95 4 -57 9 -153 13 -213 9 -144 -2 -207 -77 -433 -33 -100 -58
-188 -56 -195 3 -7 8 2 12 18 8 31 62 136 75 145 4 3 22 32 39 65 33 65 40 63
16 -5 -17 -49 -19 -74 -5 -65 14 9 28 67 45 180 13 95 67 289 86 309 5 6 9 19
9 30 0 22 81 196 91 196 4 0 0 -20 -9 -45 -15 -47 -10 -93 8 -65 13 20 12 12
-4 -35 -8 -25 -24 -45 -40 -53 -21 -11 -25 -18 -20 -38 4 -15 0 -34 -11 -50
-9 -14 -15 -28 -12 -30 3 -3 15 11 27 30 12 20 23 36 26 36 2 0 2 -30 -1 -67
-3 -56 -2 -64 7 -43 l11 25 7 -30 c5 -21 8 -24 9 -9 0 11 6 25 13 32 7 7 12
29 11 50 -1 30 0 33 6 12 l7 -25 8 29 c4 15 9 26 12 23 3 -3 -2 -26 -10 -51
-18 -52 -22 -121 -6 -96 5 8 12 39 16 68 3 29 10 55 15 58 5 3 9 13 9 24 0 10
6 20 13 23 15 5 284 -1 315 -8 12 -3 22 -12 22 -20 0 -23 22 -64 38 -70 11 -4
12 -2 5 7 -15 19 -24 78 -13 78 5 0 12 -11 16 -25 3 -14 10 -25 15 -25 5 0 7
11 3 25 -6 24 -4 25 37 24 80 -1 202 -29 228 -53 10 -9 21 -13 24 -9 4 3 18
-4 32 -17 17 -16 25 -19 25 -9 0 12 2 12 9 -1 6 -8 7 -18 5 -22 -3 -4 2 -8 11
-8 15 0 14 3 -1 30 -10 16 -21 25 -24 19 -4 -6 -12 -4 -20 6 -11 13 -10 15 4
9 9 -3 16 -1 16 6 0 26 24 -7 57 -78 39 -83 109 -162 142 -159 38 3 8 85 -32
87 -5 0 1 -12 12 -26 21 -27 28 -54 13 -54 -15 0 -64 58 -58 68 3 5 -5 25 -17
43 -21 31 -57 97 -57 105 0 8 43 -7 56 -20 9 -10 24 -14 38 -10 32 8 65 -14
125 -81 29 -33 82 -93 118 -132 70 -79 124 -120 193 -147 25 -10 55 -27 68
-39 12 -11 22 -18 22 -15 0 3 -29 58 -65 122 -60 108 -71 146 -41 146 6 0 32
-23 58 -52 66 -76 75 -49 14 45 -10 15 -14 27 -9 27 5 0 15 -12 22 -26 6 -15
14 -24 17 -22 6 6 -36 81 -48 86 -4 2 -8 12 -8 22 0 9 -7 23 -15 30 -9 7 -13
15 -10 18 3 3 -1 12 -8 20 -46 57 125 -83 227 -186 l89 -90 -29 -26 -29 -25
42 -7 c24 -3 40 -11 37 -16 -4 -6 3 -5 15 2 24 12 91 -3 91 -21 0 -5 15 -15
34 -23 18 -8 37 -19 40 -25 4 -6 14 -11 22 -11 19 0 100 -65 108 -87 4 -9 9
-31 12 -50 4 -25 2 -33 -10 -33 -8 0 -16 -5 -18 -12 -3 -9 -28 -9 -105 2 -125
16 -257 8 -321 -20 -38 -17 -43 -22 -32 -35 7 -8 19 -15 27 -15 10 0 11 -4 3
-19 -5 -11 -10 -37 -10 -58 0 -44 -13 -35 207 -150 115 -59 127 -63 185 -62
35 1 54 3 43 5 -99 20 -125 26 -125 32 0 3 14 20 30 37 23 24 33 47 41 96 7
35 13 65 14 67 5 6 69 -30 108 -60 41 -33 67 -75 67 -109 0 -17 5 -20 25 -17
32 7 47 -33 34 -89 -5 -21 -9 -52 -9 -68 0 -43 -36 -110 -109 -208 -24 -32
-41 -61 -38 -63 3 -3 27 4 52 15 26 12 49 21 51 21 2 0 -4 -17 -12 -37 -9 -21
-29 -67 -44 -103 -15 -36 -33 -78 -39 -93 l-11 -28 -38 38 c-115 119 -348 289
-570 417 -85 49 -92 61 -92 142 0 18 -5 36 -11 40 -9 5 -11 -10 -7 -57 l5 -65
-56 8 c-31 4 -130 12 -221 18 -91 6 -202 15 -246 21 -108 12 -519 13 -615 0
-42 -6 -106 -15 -144 -21 -64 -10 -71 -9 -120 14 -85 42 -164 123 -259 265
-48 72 -89 131 -93 131 -16 0 12 -70 52 -127 25 -36 59 -90 75 -121 16 -32 49
-82 74 -112 25 -30 46 -61 46 -67 0 -7 8 -13 18 -12 10 0 12 3 5 6 -7 2 -13 9
-13 14 0 6 11 2 25 -8 28 -21 33 -68 11 -111 -21 -42 -47 -215 -53 -354 -4
-90 -1 -170 12 -272 9 -79 16 -149 14 -155 -3 -7 -34 22 -70 64 -54 61 -70 87
-84 138 -24 90 -146 421 -160 435 -2 2 -20 -1 -40 -8 -81 -27 -128 5 -203 133
-60 103 -76 111 -24 11 23 -43 39 -80 37 -83 -3 -2 -15 1 -28 8 -24 13 -40 41
-94 166 -19 44 -41 84 -49 88 -14 8 -50 72 -66 117 -5 16 -6 0 -4 -47 3 -40 1
-73 -3 -73 -14 0 -29 23 -33 50 -2 17 -8 24 -20 22 -14 -2 -18 4 -18 25 0 15
-7 46 -15 68 -17 48 -19 68 -5 60 6 -3 10 -17 10 -30 0 -13 4 -26 9 -29 8 -5
13 40 27 273 6 97 -3 281 -14 281 -4 0 -8 -14 -9 -32 -1 -17 -8 -35 -15 -39
-9 -6 -13 -58 -13 -207 0 -151 -3 -198 -12 -195 -15 6 -22 30 -67 208 -60 244
-73 315 -76 418 0 4 -8 7 -19 7 -11 0 -23 -12 -31 -30 -7 -16 -16 -30 -20 -30
-11 0 -40 -81 -33 -94 4 -8 3 -8 -6 0 -16 15 -17 268 -2 384 6 46 11 109 10
140 l-1 55 -15 -42 c-8 -24 -19 -43 -24 -43 -11 0 -11 12 0 43 7 18 6 24 -4
24 -7 0 -18 -19 -24 -43 -6 -24 -16 -46 -22 -49 -5 -4 -14 -18 -20 -32 -19
-50 -29 -10 -29 118 l0 129 -35 0 c-39 0 -39 -1 -25 34 8 22 16 26 49 26 60 0
71 -17 72 -113 l1 -82 23 51 c13 29 36 102 50 163 15 61 32 114 38 118 23 16
282 152 291 152 4 1 5 -9 2 -21z m1125 -121 c-10 -9 -11 -8 -5 6 3 10 9 15 12
12 3 -3 0 -11 -7 -18z m33 -2 c-4 -8 -11 -15 -16 -15 -6 0 -5 6 2 15 7 8 14
15 16 15 2 0 1 -7 -2 -15z m-51 -73 c-10 -3 -13 -12 -9 -30 3 -15 3 -21 0 -14
-3 6 -10 10 -15 6 -14 -8 -11 14 8 49 14 29 17 30 23 12 5 -14 3 -21 -7 -23z
m187 -2 c0 -5 -12 -24 -27 -42 -36 -43 -56 -78 -44 -78 5 0 19 13 30 28 41 58
47 41 46 -125 0 -84 -2 -153 -5 -153 -60 -5 -139 -13 -194 -21 -38 -5 -71 -7
-74 -4 -15 15 78 156 149 225 38 36 52 59 27 44 -14 -9 25 57 61 103 28 36 31
38 31 23z m194 -63 c4 -15 10 -25 15 -22 8 5 26 -23 23 -36 -1 -4 21 -53 49
-109 28 -56 48 -109 45 -116 -4 -11 -29 -14 -101 -14 l-95 0 0 60 c0 84 28
263 43 272 7 4 13 4 14 0 1 -4 4 -20 7 -35z m-3066 -19 c9 -9 12 -106 12 -374
0 -349 1 -363 19 -369 11 -3 31 -15 45 -26 l26 -20 0 -179 c0 -149 -3 -180
-16 -191 -13 -10 -20 -10 -45 5 l-29 17 0 -498 c0 -375 -3 -502 -12 -511 -17
-17 -334 -17 -345 1 -8 12 -6 1158 2 1187 3 9 -13 26 -43 45 l-47 30 -3 181
c-2 156 0 183 14 194 12 11 20 11 35 2 10 -7 21 -12 24 -12 3 0 5 114 5 253 0
183 3 256 12 265 17 17 329 17 346 0z m590 0 c9 -9 12 -106 12 -373 l0 -361
98 -57 97 -56 3 416 c1 287 6 420 13 430 8 9 42 13 120 13 60 0 109 -2 109 -4
0 -3 -4 -16 -10 -30 -9 -25 -13 -26 -90 -26 l-80 0 0 -428 c0 -441 -1 -453
-39 -451 -9 0 -74 35 -146 77 l-130 77 -3 363 -2 362 -125 0 -125 0 0 -1025 0
-1025 125 0 125 0 0 503 c0 519 1 528 39 526 22 0 353 -193 365 -212 15 -23
-10 -47 -50 -47 l-34 0 0 -268 0 -267 -27 -40 -28 -40 -3 324 c-1 214 1 328 8
336 8 10 -15 27 -97 73 l-108 61 -3 -474 -2 -473 -41 -7 c-23 -4 -66 -18 -95
-31 -42 -19 -72 -24 -132 -24 -47 0 -83 5 -90 12 -17 17 -17 2129 0 2146 17
17 329 17 346 0z m2316 -80 c-3 -46 -8 -85 -10 -87 -6 -6 -4 130 2 152 11 37
14 14 8 -65z m3796 -993 l0 -1055 -440 0 -440 0 0 1055 0 1055 440 0 440 0 0
-1055z m-4070 986 c-6 -12 -15 -21 -21 -21 -5 0 -2 11 7 25 20 30 31 26 14 -4z
m90 25 c0 -2 -7 -9 -15 -16 -13 -11 -14 -10 -9 4 5 14 24 23 24 12z m698 -210
c12 -22 20 -41 18 -43 -1 -2 -17 2 -34 8 -36 12 -51 47 -57 131 l-4 53 28 -55
c15 -30 37 -73 49 -94z m-855 84 c-9 -22 -18 -38 -21 -35 -8 8 20 85 29 80 4
-3 0 -23 -8 -45z m662 7 c4 -17 12 -38 18 -45 5 -7 6 -16 2 -20 -4 -4 -10 -1
-13 7 -4 11 -6 11 -13 0 -5 -9 -10 -4 -15 17 -4 16 -11 35 -17 42 -5 7 -7 15
-4 19 4 3 14 -9 22 -28 13 -27 15 -29 12 -9 -3 14 -8 34 -12 44 -6 13 -5 17 3
13 6 -4 14 -22 17 -40z m473 -2 c-3 -3 -9 2 -12 12 -6 14 -5 15 5 6 7 -7 10
-15 7 -18z m-801 -57 c-2 -13 -4 -3 -4 22 0 25 2 35 4 23 2 -13 2 -33 0 -45z
m73 5 c0 -10 -5 -25 -10 -33 -7 -11 -10 -7 -10 18 0 17 5 32 10 32 6 0 10 -8
10 -17z m-384 -12 c17 14 17 9 4 -26 -12 -32 -30 -24 -29 13 0 15 3 21 6 14 4
-10 8 -10 19 -1z m-829 -73 c-3 -7 -5 -2 -5 12 0 14 2 19 5 13 2 -7 2 -19 0
-25z m114 -1 c-10 -9 -11 -8 -5 6 3 10 9 15 12 12 3 -3 0 -11 -7 -18z m-9 -49
c-7 -7 -12 -8 -12 -2 0 6 3 14 7 17 3 4 9 5 12 2 2 -3 -1 -11 -7 -17z m635
-75 c-3 -10 -5 -4 -5 12 0 17 2 24 5 18 2 -7 2 -21 0 -30z m988 -13 c3 -5 1
-10 -4 -10 -6 0 -11 5 -11 10 0 6 2 10 4 10 3 0 8 -4 11 -10z m181 -93 c8 3
14 -1 14 -10 0 -9 5 -19 12 -23 8 -5 9 -1 5 12 -6 18 -6 18 8 -1 9 -11 30 -42
48 -69 18 -28 39 -52 47 -54 11 -4 10 -1 -3 12 -10 10 -25 32 -33 49 -9 18
-23 39 -30 48 -13 14 -12 18 1 29 13 11 14 10 9 -4 -4 -11 1 -19 17 -25 15 -6
18 -10 9 -11 -8 -1 -4 -5 9 -9 14 -4 26 -12 27 -19 1 -7 0 -8 -3 -2 -2 5 -9
10 -14 10 -18 0 -8 -20 26 -56 19 -19 35 -41 35 -47 0 -7 9 -23 20 -37 50 -64
-6 -41 -84 35 -23 22 -166 197 -146 178 7 -6 19 -9 26 -6z m710 -24 c45 -52
71 -128 45 -128 -15 0 -56 74 -71 126 -11 36 -4 37 26 2z m-506 -27 c0 -12 -5
-7 -19 24 -11 24 -11 24 3 6 9 -11 16 -24 16 -30z m670 -279 c0 -13 5 -28 11
-34 7 -7 7 -13 1 -17 -13 -8 -83 114 -82 143 1 18 70 -72 70 -92z m-3180 -92
c19 -17 20 -30 20 -316 l0 -297 -30 11 -30 11 1 336 c0 215 4 324 10 304 5
-17 18 -39 29 -49z m4225 -81 l25 -16 0 -529 0 -529 -155 0 -155 0 0 276 c0
290 6 321 39 222 22 -66 31 -69 24 -10 -5 47 -4 50 14 46 33 -9 46 21 55 134
8 109 41 246 86 360 13 34 28 62 33 62 6 0 21 -7 34 -16z m-905 -56 c-1 -26
-3 -30 -10 -16 -6 9 -7 23 -4 32 9 25 14 19 14 -16z m-510 -113 c7 -9 10 -19
6 -22 -8 -9 -38 9 -44 25 -5 17 23 15 38 -3z m270 -74 c0 -5 -14 -21 -32 -36
-26 -22 -37 -25 -67 -20 -36 7 -71 30 -71 48 0 6 20 7 48 4 26 -3 56 -2 67 3
27 12 55 12 55 1z m887 -138 c-3 -10 -5 -4 -5 12 0 17 2 24 5 18 2 -7 2 -21 0
-30z m-3777 -50 c-11 -17 -11 -17 -6 0 3 10 6 24 7 30 0 9 2 9 5 0 3 -7 0 -20
-6 -30z m111 -65 c5 -10 6 -18 1 -18 -5 0 -14 11 -20 25 -22 49 -11 44 19 -7z
m158 -198 c0 -10 -3 -8 -9 5 -12 27 -12 43 0 25 5 -8 9 -22 9 -30z m11 -62
c19 -31 28 -69 13 -55 -9 10 -43 87 -37 87 2 0 13 -15 24 -32z m3210 -183 l0
-135 -157 0 -158 1 58 54 c72 68 113 91 133 74 9 -7 14 -8 14 -1 0 6 17 19 38
29 30 15 40 27 52 65 8 27 16 48 18 48 1 0 2 -61 2 -135z m-3162 54 c-3 -8 -7
-3 -11 10 -4 17 -3 21 5 13 5 -5 8 -16 6 -23z m2887 9 c-4 -13 -14 -34 -22
-48 -13 -23 -12 -23 12 3 14 16 23 32 20 37 -3 4 2 11 11 14 31 12 -38 -92
-92 -139 -30 -25 -54 -42 -54 -36 0 5 8 15 18 21 14 9 12 10 -10 5 -25 -5 -28
-2 -28 19 0 37 17 74 46 101 32 29 44 31 44 8 1 -13 5 -10 16 10 18 34 49 38
39 5z m-4965 -618 c22 -11 40 -25 40 -30 0 -27 -193 -24 -331 5 -39 8 -93 15
-121 15 -89 0 -42 14 70 20 226 14 300 12 342 -10z m4808 -82 c9 -9 12 -106
12 -374 0 -349 1 -363 19 -369 11 -3 31 -15 45 -26 l26 -20 0 -179 c0 -149 -3
-180 -16 -191 -13 -10 -20 -10 -45 5 l-29 17 0 -55 c0 -31 -2 -56 -5 -56 -2 0
-16 5 -30 12 -23 10 -25 16 -25 83 0 85 14 106 56 86 14 -6 27 -11 29 -11 3 0
5 58 5 129 l0 130 -42 23 -43 23 -3 363 -2 362 -117 0 -117 0 29 30 c28 30 30
30 135 30 69 0 110 -4 118 -12z m590 0 c9 -9 12 -106 12 -373 l0 -361 98 -57
97 -56 5 427 5 427 180 0 180 0 0 -460 0 -460 -54 -35 c-46 -30 -51 -36 -36
-45 9 -5 35 -22 56 -38 l39 -27 0 -235 0 -234 -30 10 -30 11 -2 211 -3 211
-70 41 c-38 23 -71 49 -73 57 -3 18 18 36 96 79 l52 29 0 415 0 415 -125 0
-125 0 0 -428 c0 -441 -1 -453 -39 -451 -9 0 -74 35 -146 77 l-130 77 -3 363
-2 362 -125 0 -125 0 0 -641 0 -641 -22 6 c-13 3 -26 6 -30 6 -5 0 -8 294 -8
653 0 495 3 656 12 665 8 8 61 12 173 12 112 0 165 -4 173 -12z m1670 -1062
c1 -781 -1 -1072 -9 -1082 -9 -11 -58 -14 -230 -14 l-219 0 0 30 0 30 200 0
200 0 0 1025 0 1025 -410 0 -410 0 0 -779 0 -779 -30 11 -30 11 0 792 c0 435
3 794 7 797 3 4 214 6 467 5 l461 -3 3 -1069z m-7598 951 c86 -50 97 -60 118
-105 31 -69 199 -317 296 -437 16 -19 27 -37 25 -40 -3 -2 -67 32 -143 76 -76
43 -140 79 -142 79 -2 0 -4 -358 -4 -795 l0 -795 -155 0 -155 0 0 1056 0 1056
33 -20 c17 -10 75 -44 127 -75z m5028 -474 c-8 -10 -22 -13 -40 -9 l-28 6 0
-130 0 -129 56 -33 c90 -53 111 -74 98 -95 -6 -10 -23 -19 -37 -21 -25 -3 -26
-6 -29 -79 l-3 -75 -28 23 c-28 21 -29 24 -25 104 l3 82 -45 29 -45 29 -3 181
c-2 156 0 183 14 194 12 11 20 11 35 2 10 -7 21 -12 24 -12 3 0 5 94 5 209 l0
209 28 20 27 20 3 -255 c2 -189 -1 -259 -10 -270z m-4894 443 c15 -17 46 -62
68 -101 23 -38 56 -95 74 -125 18 -31 36 -68 39 -83 4 -15 11 -30 16 -33 5 -3
9 -10 9 -16 0 -43 -153 173 -210 295 -41 89 -61 148 -38 113 7 -11 26 -33 42
-50z m4654 -573 l-3 -157 -27 57 c-28 55 -28 58 -28 259 0 203 0 204 28 259
l27 54 3 -157 c1 -87 1 -229 0 -315z m2500 -347 c1 -552 -1 -763 -9 -772 -8
-10 -34 -14 -83 -13 -66 0 -73 2 -94 30 l-24 29 76 0 76 0 0 715 0 715 -100 0
-100 0 0 -704 0 -704 -30 11 -30 11 0 717 c0 393 3 719 7 723 4 3 75 5 157 4
l151 -3 3 -759z m-6806 239 c55 -258 79 -311 176 -390 l60 -50 1 -236 c1 -130
-2 -324 -6 -432 l-6 -197 -149 0 -148 0 0 696 0 695 27 -3 c25 -3 29 -8 45
-83z m5623 -344 c93 -54 174 -105 179 -114 15 -23 -10 -47 -50 -47 l-34 0 0
-73 0 -73 88 -18 c48 -10 100 -25 116 -33 16 -8 45 -17 65 -19 20 -3 40 -9 45
-14 6 -6 19 -10 31 -10 32 0 124 -49 173 -91 41 -35 69 -48 234 -105 90 -31
108 -41 108 -64 0 -18 -2 -18 -47 -4 -27 8 -111 28 -188 45 -215 46 -311 69
-368 88 -51 18 -52 18 -55 62 l-3 44 -77 32 c-131 54 -273 94 -367 104 -94 10
-173 29 -215 54 -32 19 -29 18 59 -4 48 -13 80 -17 95 -11 17 7 17 9 4 9 -16
1 -18 15 -18 159 0 161 5 183 40 181 8 0 91 -44 185 -98z m-745 -118 c50 -18
70 -31 70 -44 0 -25 -105 8 -155 49 l-30 25 35 -7 c19 -4 55 -15 80 -23z m120
-33 c0 -5 -7 -7 -15 -4 -8 4 -15 8 -15 10 0 2 7 4 15 4 8 0 15 -4 15 -10z
m157 -74 c95 -37 283 -128 283 -137 0 -4 -10 -15 -21 -23 -12 -8 -19 -21 -17
-28 3 -7 52 -34 108 -58 117 -51 278 -129 268 -130 -15 0 -147 33 -218 55
-120 38 -266 75 -293 75 -42 0 -40 16 5 54 50 41 53 39 -97 63 l-110 18 1 53
c1 41 15 82 28 82 1 0 30 -11 63 -24z m-113 -260 c61 -47 135 -110 165 -140
l54 -55 -27 -11 c-15 -5 -38 -13 -51 -16 -14 -3 -25 -9 -25 -12 0 -3 37 -44
83 -91 45 -47 100 -108 122 -136 21 -27 55 -68 74 -89 l36 -39 -53 29 c-29 16
-82 55 -118 87 -82 72 -197 151 -293 199 l-75 38 37 15 c21 8 60 21 87 27 28
6 50 14 50 18 0 7 -130 70 -144 70 -15 0 -136 64 -136 72 0 9 90 118 98 118 2
0 54 -38 116 -84z m1536 -279 l0 -73 -100 25 c-55 14 -100 29 -100 32 0 9 103
59 121 59 8 1 25 7 39 15 14 8 28 14 33 15 4 0 7 -33 7 -73z"/>
<path d="M2684 6080 c-32 -39 -62 -77 -67 -85 -18 -32 4 -12 55 51 67 85 82
104 76 104 -3 0 -32 -32 -64 -70z"/>
<path d="M2779 6063 c-13 -16 -12 -17 4 -4 16 13 21 21 13 21 -2 0 -10 -8 -17
-17z"/>
<path d="M2565 5040 c-3 -5 -1 -10 4 -10 6 0 11 5 11 10 0 6 -2 10 -4 10 -3 0
-8 -4 -11 -10z"/>
<path d="M2301 4954 c0 -11 3 -14 6 -6 3 7 2 16 -1 19 -3 4 -6 -2 -5 -13z"/>
<path d="M2907 4594 c-4 -4 -7 -14 -7 -23 0 -11 3 -12 11 -4 6 6 10 16 7 23
-2 6 -7 8 -11 4z"/>
<path d="M2850 4556 c0 -14 4 -27 9 -31 5 -3 9 8 9 25 -1 36 -18 41 -18 6z"/>
<path d="M2862 4485 c0 -16 2 -22 5 -12 2 9 2 23 0 30 -3 6 -5 -1 -5 -18z"/>
<path d="M4430 4506 c0 -2 8 -10 18 -17 15 -13 16 -12 3 4 -13 16 -21 21 -21
13z"/>
<path d="M2334 4442 c-6 -4 -15 -18 -19 -32 -7 -22 -6 -23 7 -12 9 7 18 22 21
32 6 23 6 22 -9 12z"/>
<path d="M2850 4421 c0 -5 5 -13 10 -16 6 -3 10 -2 10 4 0 5 -4 13 -10 16 -5
3 -10 2 -10 -4z"/>
<path d="M3735 4384 c-97 -25 -146 -65 -122 -99 12 -15 17 -15 75 4 64 22 102
27 102 13 0 -4 -7 -17 -15 -30 -15 -20 -14 -24 15 -52 l31 -30 -24 -26 c-22
-24 -27 -25 -63 -15 -51 14 -55 7 -10 -20 20 -11 34 -24 31 -28 -5 -9 102 -24
276 -41 63 -6 126 -14 139 -17 16 -4 21 -3 16 5 -4 7 -16 12 -27 12 -25 0 -24
11 5 66 18 33 23 55 19 80 -3 19 -2 34 3 34 16 0 137 -40 148 -49 6 -4 36 -22
67 -39 l55 -31 -1 38 c-1 31 -8 45 -40 75 -114 106 -245 146 -490 151 -93 2
-179 2 -190 -1z m137 -212 c8 -31 -1 -43 -23 -29 -26 16 -26 57 0 50 11 -3 21
-12 23 -21z m262 -4 c-6 -51 -39 -78 -96 -78 -56 0 -62 11 -15 28 18 6 48 27
67 45 44 44 48 44 44 5z m-223 -61 c-1 -12 -15 -9 -19 4 -3 6 1 10 8 8 6 -3
11 -8 11 -12z"/>
<path d="M4412 4334 c10 -10 20 -15 24 -12 3 4 -5 12 -18 18 -22 12 -22 12 -6
-6z"/>
<path d="M3012 4228 c-9 -11 -6 -24 13 -61 14 -25 25 -54 25 -63 0 -10 3 -15
6 -11 6 5 -10 90 -25 131 -6 15 -9 16 -19 4z"/>
<path d="M2842 4134 c-31 -21 -27 -30 12 -28 46 2 60 12 45 30 -15 18 -29 18
-57 -2z"/>
<path d="M2915 4077 c-4 -13 3 -42 14 -67 11 -24 18 -47 16 -50 -2 -3 5 -17
16 -30 22 -30 24 -19 9 61 -18 97 -43 136 -55 86z"/>
<path d="M5250 4024 c-46 -18 -100 -47 -100 -53 0 -4 33 1 73 12 45 12 108 20
169 21 64 1 91 4 80 10 -19 11 -200 19 -222 10z"/>
<path d="M5508 4003 c7 -3 16 -2 19 1 4 3 -2 6 -13 5 -11 0 -14 -3 -6 -6z"/>
<path d="M2898 3993 c-24 -6 -23 -23 1 -23 10 0 21 7 25 15 6 15 4 16 -26 8z"/>
<path d="M5541 3996 c2 -2 18 -6 34 -10 22 -5 26 -4 15 4 -14 9 -59 15 -49 6z"/>
<path d="M2911 3936 c-7 -8 -11 -27 -8 -43 4 -27 4 -27 6 4 0 17 7 33 14 36 6
2 9 7 6 11 -3 4 -12 0 -18 -8z"/>
<path d="M2830 3885 c7 -9 15 -13 17 -11 7 7 -7 26 -19 26 -6 0 -6 -6 2 -15z"/>
<path d="M2943 3824 c-13 -11 -23 -27 -23 -33 0 -7 12 2 26 19 31 36 29 45 -3
14z"/>
<path d="M2903 3737 c3 -20 18 -53 34 -73 15 -21 27 -46 25 -56 -2 -10 1 -18
7 -18 5 0 16 -13 24 -29 l15 -29 -32 3 c-17 1 -40 6 -51 10 -39 14 27 -34 84
-60 29 -14 55 -25 57 -25 2 0 4 21 4 47 0 44 -3 49 -64 107 -67 64 -86 91 -86
125 0 11 -5 23 -12 27 -8 5 -9 -3 -5 -29z"/>
<path d="M2711 3680 c0 -8 4 -22 9 -30 12 -18 12 -2 0 25 -6 13 -9 15 -9 5z"/>
<path d="M2730 3621 c0 -6 4 -13 10 -16 6 -3 7 1 4 9 -7 18 -14 21 -14 7z"/>
<path d="M760 4716 c0 -287 -2 -295 -55 -282 l-25 6 0 -129 0 -130 56 -33 c90
-53 111 -74 98 -95 -6 -10 -23 -19 -38 -21 l-26 -3 0 -458 c0 -252 -3 -499 -6
-549 l-7 -92 127 0 126 0 0 509 c0 444 2 510 15 521 12 10 21 10 41 1 14 -6
27 -11 29 -11 3 0 5 58 5 129 l0 130 -42 23 -43 23 -3 363 -2 362 -125 0 -125
0 0 -264z"/>
<path d="M7190 3955 l0 -745 130 0 130 0 0 745 0 745 -130 0 -130 0 0 -745z"/>
<path d="M6270 1107 l0 -144 59 -6 c33 -4 78 -9 100 -13 l41 -7 0 85 c0 46 5
89 11 95 9 9 -41 41 -203 130 -5 2 -8 -61 -8 -140z"/>
<path d="M6488 943 c6 -2 18 -2 25 0 6 3 1 5 -13 5 -14 0 -19 -2 -12 -5z"/>
<path d="M7700 6475 l0 -1025 150 0 150 0 0 124 c0 122 -1 125 -22 128 l-23 3
0 770 0 770 23 3 c21 3 22 6 22 128 l0 124 -150 0 -150 0 0 -1025z"/>
<path d="M198 4824 c-2 -127 -6 -159 -18 -166 -11 -7 -36 2 -93 36 -43 25 -80
46 -83 46 -2 0 -3 -59 -2 -132 l3 -132 135 -77 c74 -43 139 -84 144 -93 15
-22 -11 -46 -50 -46 l-34 0 0 -665 0 -665 125 0 125 0 0 1025 0 1025 -125 0
-124 0 -3 -156z"/>
<path d="M2182 3258 c-85 -127 -147 -358 -96 -358 9 0 34 16 57 35 41 35 67
44 67 24 0 -8 4 -8 14 0 16 13 10 51 -9 51 -18 0 -45 34 -45 58 0 12 -4 22 -9
22 -11 0 -9 39 2 57 4 6 3 13 -3 15 -5 1 5 33 23 71 18 37 32 67 31 67 -2 0
-16 -19 -32 -42z"/>
<path d="M2505 3155 c4 -11 16 -45 26 -75 11 -30 31 -114 44 -185 33 -177 54
-227 136 -324 136 -162 193 -270 212 -407 l12 -89 3 67 c5 117 -52 236 -213
443 -82 106 -103 148 -121 253 -23 133 -53 240 -80 291 -14 25 -22 37 -19 26z"/>
<path d="M2470 3050 c0 -9 -9 -22 -19 -30 -11 -7 -18 -17 -15 -21 2 -5 -8 -16
-23 -26 -15 -9 -30 -18 -32 -19 -1 -2 6 -13 18 -25 20 -22 21 -22 60 -4 22 9
42 23 45 30 2 7 -4 35 -14 62 -11 26 -19 41 -20 33z"/>
<path d="M2385 3027 c-11 -7 -21 -24 -22 -39 -1 -16 0 -28 1 -28 2 0 15 18 30
40 27 41 25 48 -9 27z"/>
<path d="M3109 2838 c-1 -88 -5 -113 -27 -161 -11 -23 -26 -64 -35 -91 -21
-67 2 -41 39 44 15 36 33 71 40 79 11 12 15 10 24 -13 5 -15 10 -31 10 -35 0
-5 13 -51 29 -102 42 -139 53 -263 54 -644 1 -216 4 -316 9 -275 19 162 6 667
-21 823 -23 129 -27 202 -11 192 6 -3 10 -3 10 2 0 4 4 14 9 22 8 12 17 7 51
-23 23 -21 44 -35 47 -32 7 7 -39 65 -52 65 -11 1 -54 52 -94 111 -13 19 -36
50 -52 68 l-29 33 -1 -63z"/>
<path d="M1525 2829 c-11 -16 -1 -19 13 -3 7 8 8 14 3 14 -5 0 -13 -5 -16 -11z"/>
<path d="M1490 2810 c-9 -6 -10 -10 -3 -10 6 0 15 5 18 10 8 12 4 12 -15 0z"/>
<path d="M1374 2784 c-18 -14 -18 -15 4 -4 12 6 22 13 22 15 0 8 -5 6 -26 -11z"/>
<path d="M2278 2200 c-86 -26 -143 -96 -154 -191 -8 -67 1 -76 79 -85 46 -5
67 -2 112 16 71 29 110 73 126 144 17 79 6 101 -61 115 -58 12 -64 13 -102 1z"/>
<path d="M2940 1876 c0 -2 8 -10 18 -17 15 -13 16 -12 3 4 -13 16 -21 21 -21
13z"/>
<path d="M2853 1783 c-98 -171 -184 -274 -237 -287 -24 -6 189 4 314 14 47 3
66 7 43 8 -23 1 -54 7 -70 13 -67 25 -112 105 -81 146 20 28 81 30 106 2 19
-19 42 -35 80 -55 25 -13 23 4 -7 52 -17 26 -31 58 -31 70 0 21 -60 84 -80 84
-5 0 -22 -21 -37 -47z"/>
<path d="M3046 1780 c23 -25 56 -66 73 -92 18 -27 34 -48 37 -48 15 0 -46 86
-95 132 -49 46 -51 47 -15 8z"/>
<path d="M1440 1693 c-80 -20 -122 -44 -148 -83 -29 -44 -25 -69 15 -93 97
-56 240 -18 278 75 20 52 19 65 -9 83 -43 28 -78 33 -136 18z m-70 -57 c0 -2
-8 -10 -17 -17 -16 -13 -17 -12 -4 4 13 16 21 21 21 13z m-11 -112 c14 -12
-19 -1 -35 12 -18 14 -18 14 6 3 14 -6 27 -13 29 -15z"/>
<path d="M3190 1570 c21 -41 29 -69 25 -88 -4 -21 -4 -23 3 -7 13 29 24 103
12 85 -10 -16 -9 -17 -39 33 -34 57 -35 44 -1 -23z"/>
<path d="M2042 1550 c-7 -11 -19 -20 -27 -20 -12 0 -13 -4 -4 -18 17 -27 -8
-73 -51 -95 -33 -18 -33 -18 -6 -12 16 3 43 17 60 30 18 13 57 29 87 36 57 12
99 33 99 50 0 6 -12 1 -26 -10 -30 -23 -80 -27 -119 -9 -23 10 -24 13 -9 29 9
10 14 23 12 29 -1 5 -9 1 -16 -10z"/>
<path d="M2535 1475 c-25 -12 -26 -14 -5 -9 28 7 60 23 45 23 -5 0 -23 -6 -40
-14z"/>
<path d="M2375 1406 c-155 -75 -193 -111 -255 -246 -4 -8 -36 -22 -71 -32
-115 -32 -229 -69 -229 -75 0 -3 26 -3 58 1 31 3 51 3 45 0 -22 -10 -15 -23
41 -78 29 -30 53 -62 53 -72 0 -43 2 -45 24 -33 15 8 11 -3 -19 -43 -35 -48
-45 -55 -102 -69 -58 -16 -70 -24 -159 -113 -53 -53 -100 -96 -103 -96 -15 0
6 67 37 115 45 71 50 84 21 50 -44 -51 -83 -136 -104 -225 -57 -236 -66 -357
-32 -434 10 -25 21 -46 23 -46 3 0 -2 26 -9 57 -8 32 -14 66 -14 75 0 20 126
174 168 205 l30 22 85 -60 c48 -32 89 -64 93 -70 9 -14 -23 -40 -178 -146 -71
-47 -128 -88 -128 -90 0 -1 238 -3 529 -3 l529 0 5 30 c7 34 119 280 128 280
3 0 23 -32 44 -71 45 -81 47 -80 87 23 13 32 26 58 29 58 3 0 18 -31 33 -69
l27 -69 -56 -74 c-32 -40 -60 -74 -63 -75 -4 -2 -20 20 -35 47 -16 28 -32 48
-37 45 -9 -6 -80 -111 -80 -119 0 -3 108 -6 239 -6 l240 0 3 27 3 26 25 -26
c19 -20 35 -27 66 -27 l41 0 11 105 c5 57 13 108 15 112 3 5 42 2 86 -6 60
-11 81 -19 81 -30 0 -9 -16 -52 -35 -96 -19 -44 -35 -81 -35 -82 0 -2 78 -3
173 -3 l174 0 0 45 c0 25 2 48 5 51 4 3 43 2 88 -2 l82 -7 -7 -43 -6 -44 141
0 140 0 -6 27 c-3 16 -8 36 -10 45 -4 12 2 19 18 22 13 2 47 9 76 15 88 18 86
19 78 -49 l-7 -60 136 0 c74 0 135 2 135 5 0 3 -11 28 -25 55 -38 75 -36 80
56 119 44 18 82 31 85 28 8 -7 24 -119 24 -165 l0 -44 140 5 c135 5 170 13
170 40 0 5 -22 49 -50 97 -28 48 -50 96 -50 106 0 12 22 33 62 59 34 22 64 41
68 43 4 1 15 -28 25 -65 10 -37 21 -71 24 -76 8 -9 115 311 137 408 15 68 33
465 21 465 -3 0 -13 -13 -21 -30 -9 -16 -23 -43 -31 -59 -28 -53 -144 -130
-341 -227 -127 -63 -198 -92 -210 -88 -16 5 -17 4 -4 -6 13 -10 11 -11 -8 -7
-12 3 -20 1 -17 -3 3 -4 -9 -13 -27 -19 -38 -13 -41 -14 -33 -1 3 6 16 10 28
11 13 0 16 3 9 6 -19 7 -63 -17 -55 -30 4 -6 0 -8 -10 -4 -9 3 -17 2 -19 -4
-4 -11 -135 -61 -234 -89 -58 -16 -100 -20 -240 -20 -93 0 -186 3 -206 6 -36
6 -80 42 -123 99 -8 12 -6 -1 7 -32 15 -36 28 -53 42 -56 12 -2 -18 -7 -65
-11 -96 -9 -195 3 -294 36 -71 24 -320 156 -388 207 -86 64 -197 239 -197 311
0 54 -18 23 -30 -55 -7 -38 -18 -128 -25 -200 l-14 -130 5 189 c3 135 9 196
19 216 17 34 45 111 45 127 0 28 -40 22 -111 -15 -41 -21 -87 -44 -104 -50
-42 -16 -132 -68 -171 -97 -18 -14 -37 -25 -41 -25 -5 0 -18 -8 -29 -18 -42
-39 -69 -51 -116 -49 -33 1 -48 6 -48 15 0 11 -17 13 -74 11 -68 -3 -77 -1
-101 21 -54 51 -67 108 -41 181 29 82 125 163 278 234 40 18 69 34 63 34 -5 1
-59 -23 -120 -53z m316 -532 c16 -24 29 -47 29 -52 0 -9 -61 -38 -230 -109
-150 -63 -139 -63 -133 -9 3 25 3 46 0 46 -11 0 -155 -84 -212 -125 -33 -23
-75 -50 -94 -60 l-34 -17 22 30 c24 35 120 121 273 245 74 61 108 82 111 73 3
-8 3 -39 0 -70 -4 -34 -2 -56 4 -56 6 0 54 38 108 85 108 95 103 95 156 19z
m136 -204 c25 -22 73 -84 73 -92 0 -5 -124 -79 -283 -168 -32 -18 -61 -30 -63
-27 -3 3 -8 24 -11 46 -3 23 -9 41 -13 41 -17 0 -138 -97 -199 -159 -37 -37
-77 -76 -90 -87 l-24 -19 26 50 c33 66 133 189 241 295 97 95 106 95 106 3 0
-29 4 -53 8 -53 5 0 51 43 103 95 51 52 96 95 99 95 4 0 16 -9 27 -20z m141
-155 c11 -44 26 -93 32 -110 l11 -30 18 23 17 24 67 -32 c37 -17 67 -35 67
-39 0 -5 -22 -39 -49 -76 l-49 -67 -15 23 c-9 13 -41 83 -71 155 -43 102 -56
147 -60 200 -6 76 -2 67 32 -71z"/>
<path d="M3176 1397 c-51 -94 -110 -175 -138 -192 -16 -9 -28 -21 -28 -26 0
-31 112 82 159 159 28 46 51 112 40 112 -2 0 -17 -24 -33 -53z"/>
<path d="M1435 1030 c3 -5 20 -10 36 -10 18 0 28 4 24 10 -3 6 -20 10 -36 10
-18 0 -28 -4 -24 -10z"/>
</g>
</svg>
